<svg width="3456" height="1216" viewBox="0 0 3456 1216" fill="none" xmlns="http://www.w3.org/2000/svg">
<g clip-path="url(#clip0_3_3)">
<path d="M1134 473C1312.8 473 1312.8 473 1347 485C1347 485.66 1347 486.32 1347 487C1347.54 487.107 1348.08 487.214 1348.63 487.324C1363.75 491.633 1375.45 503.683 1383.71 516.504C1385 519 1385 519 1385 522C1385.66 522 1386.32 522 1387 522C1396.47 542.446 1397.73 564.251 1392 586C1391.8 586.79 1391.61 587.58 1391.4 588.395C1391.27 588.924 1391.14 589.454 1391 590C1390.34 590 1389.68 590 1389 590C1388.67 592.31 1388.34 594.62 1388 597C1387.34 597 1386.68 597 1386 597C1385.81 597.866 1385.81 597.866 1385.62 598.75C1384.99 601.023 1384.11 602.925 1383 605C1382.34 605 1381.68 605 1381 605C1380.76 605.723 1380.51 606.446 1380.26 607.191C1375.47 617.884 1364.36 625.355 1354 630C1353.34 630 1352.68 630 1352 630C1354.09 632.312 1355.78 633.472 1358.69 634.562C1374.33 641.287 1389.47 652.053 1398 667C1398.7 668.114 1399.4 669.227 1400.12 670.375C1408.15 684.988 1409.29 700.777 1409.44 717.062C1409.45 717.736 1409.46 718.41 1409.47 719.105C1409.63 729.448 1408.09 738.209 1405 748C1404.34 748 1403.68 748 1403 748C1402.87 748.732 1402.75 749.464 1402.62 750.219C1399.69 763.407 1388.69 774.887 1377.82 782.227C1376.89 782.812 1375.96 783.397 1375 784C1374.01 784.626 1373.01 785.253 1371.99 785.898C1353.26 797.251 1330.87 802.306 1309.14 803.551C1308.03 803.615 1308.03 803.615 1306.9 803.68C1298.88 804.107 1290.86 804.133 1282.83 804.114C1281.17 804.113 1279.5 804.113 1277.84 804.114C1273.44 804.114 1269.04 804.108 1264.64 804.101C1260.49 804.096 1256.34 804.095 1252.19 804.095C1240.11 804.089 1228.02 804.075 1215.94 804.062C1188.9 804.042 1161.86 804.021 1134 804C1134 694.77 1134 585.54 1134 473Z" fill="#050605"/>
<path d="M438 473C451.2 473 464.4 473 478 473C484.565 483.316 490.856 493.681 496.875 504.312C500.821 511.251 504.841 518.114 509.066 524.887C511.289 528.466 513.461 532.073 515.625 535.688C515.973 536.269 516.322 536.851 516.68 537.451C517.392 538.639 518.103 539.828 518.813 541.017C522.198 546.673 525.59 552.324 529 557.965C533.676 565.709 538.318 573.437 542.574 581.422C545.947 587.52 549.721 593.397 553.445 599.285C555.975 603.287 558.336 607.343 560.602 611.5C562.817 615.46 565.189 619.327 567.547 623.203C568.936 625.876 569.589 628.034 570 631C570.66 631 571.32 631 572 631C573.516 633.273 573.516 633.273 575.25 636.375C576.178 638.013 576.178 638.013 577.125 639.684C577.744 640.778 578.363 641.872 579 643C580.076 644.817 581.159 646.629 582.25 648.438C582.709 649.199 583.168 649.961 583.641 650.746C584.089 651.49 584.538 652.234 585 653C601 679.581 601 679.581 601 683C601.66 683 602.32 683 603 683C603.262 683.51 603.524 684.019 603.794 684.545C604.982 686.845 606.178 689.141 607.375 691.438C607.787 692.24 608.2 693.042 608.625 693.869C609.025 694.633 609.424 695.397 609.836 696.184C610.386 697.244 610.386 697.244 610.947 698.326C611.904 700.168 611.904 700.168 614 701C614.268 700.113 614.536 699.226 614.812 698.312C615.936 695.179 617.267 692.825 619 690C620.19 687.897 621.377 685.793 622.562 683.688C626.059 677.512 629.765 671.486 633.586 665.507C635.967 661.757 638.014 657.977 640 654C642.105 650.289 644.274 646.615 646.438 642.938C653.041 631.671 659.546 620.352 666 609C666.66 609 667.32 609 668 609C668.092 608.309 668.183 607.618 668.277 606.906C669.165 603.337 670.703 600.673 672.562 597.5C672.917 596.891 673.272 596.281 673.638 595.653C676.646 590.519 679.771 585.459 682.945 580.426C685.202 576.663 687.283 572.826 689.372 568.969C692.115 563.968 694.994 559.048 697.875 554.125C698.489 553.073 699.103 552.021 699.736 550.937C703.523 544.469 707.395 538.069 711.355 531.707C713.442 528.273 715.341 524.756 717.238 521.215C724.812 507.395 732.869 493.8 741.387 480.543C742.966 478.054 744.484 475.527 746 473C759.2 473 772.4 473 786 473C786 582.23 786 691.46 786 804C771.81 804 757.62 804 743 804C743 722.16 743 640.32 743 556C739.737 558.175 739.261 559.129 737.812 562.625C737.296 563.851 737.296 563.851 736.77 565.102C736.516 565.728 736.262 566.355 736 567C735.34 567 734.68 567 734 567C733.611 568.019 733.611 568.019 733.215 569.059C731.807 572.468 730.21 575.764 728.562 579.062C728.263 579.674 727.963 580.286 727.654 580.916C726.016 584.203 724.224 587.089 722 590C721.67 590.99 721.34 591.98 721 593C720.34 593 719.68 593 719 593C718.769 593.817 718.539 594.635 718.301 595.477C716.715 599.773 714.549 603.466 712.188 607.375C711.548 608.45 711.548 608.45 710.896 609.547C708.761 613.127 706.582 616.676 704.359 620.203C702.475 623.204 700.724 626.244 699.062 629.375C696.694 633.768 694.194 638.051 691.605 642.316C689.838 645.27 688.136 648.256 686.438 651.25C682.901 657.478 679.273 663.649 675.625 669.812C674.788 671.226 674.788 671.226 673.935 672.668C671.803 676.27 669.669 679.871 667.535 683.472C663.109 690.94 658.735 698.411 654.625 706.059C649.952 714.517 644.948 722.801 639.938 731.062C636.914 736.068 634.074 741.175 631.246 746.293C630.522 747.594 629.785 748.887 629.034 750.171C628.075 751.867 627.242 753.632 626.422 755.398C623.154 758.908 620.656 759.035 615.977 759.343C603.043 759.477 603.043 759.477 599.06 756.597C595.798 752.896 593.808 748.57 591.894 744.06C590.682 741.267 589.146 738.722 587.562 736.125C587.019 735.18 586.475 734.235 585.914 733.262C583.481 729.116 580.958 725.03 578.438 720.938C567 702.312 567 702.312 567 699C566.34 699 565.68 699 565 699C564.328 697.711 563.663 696.419 563 695.125C562.629 694.406 562.257 693.686 561.875 692.945C561 691 561 691 561 689C560.34 689 559.68 689 559 689C558.412 687.484 558.412 687.484 557.812 685.938C556.357 682.518 554.47 679.776 552.254 676.812C550.552 674.352 549.324 671.74 548.035 669.047C546.266 665.549 544.114 662.296 542 659C536 649.308 536 649.308 536 646C535.34 646 534.68 646 534 646C533.636 645.322 533.273 644.644 532.898 643.945C530.341 639.212 527.747 634.527 524.938 629.938C522.947 626.67 521.164 623.382 519.5 619.938C517.414 615.63 514.932 611.79 512.137 607.91C511 606 511 606 511 603C510.34 603 509.68 603 509 603C508.72 602.49 508.441 601.979 508.152 601.453C504.999 595.734 501.711 590.107 498.355 584.504C497 582 497 582 497 580C496.34 580 495.68 580 495 580C494.792 579.49 494.585 578.979 494.371 578.453C491.846 572.495 488.751 567.031 485.391 561.504C484 559 484 559 484 557C483.34 557 482.68 557 482 557C482 638.51 482 720.02 482 804C467.48 804 452.96 804 438 804C438 694.77 438 585.54 438 473Z" fill="#050605"/>
<path d="M2511 559C2512.18 559.29 2513.35 559.58 2514.57 559.879C2527.41 563.249 2543.48 568.313 2553 578C2554.44 579.076 2555.88 580.15 2557.33 581.208C2578.19 596.542 2590.64 618.169 2597 643C2597.32 644.021 2597.65 645.042 2597.98 646.094C2602.27 662.535 2601 676.38 2601 694C2534.67 694 2468.34 694 2400 694C2405.35 720.753 2416.11 740.309 2438.77 755.906C2459.2 768.651 2486.34 773.018 2509.87 767.769C2512.96 766.969 2515.98 766.023 2519 765C2520.3 764.567 2520.3 764.567 2521.63 764.125C2524.15 763.194 2526.56 762.127 2529 761C2529.58 760.748 2530.15 760.496 2530.75 760.236C2539.82 756.25 2547.26 751.691 2554.48 744.861C2558.62 741 2558.62 741 2563 741C2565.11 742.688 2565.11 742.688 2567.31 745C2568.1 745.822 2568.89 746.645 2569.7 747.492C2572.28 750.309 2574.81 753.169 2577.29 756.07C2580.05 759.189 2583.02 762.098 2586 765C2582.59 772.577 2575.47 777.441 2568.81 782.062C2568.07 782.583 2567.32 783.103 2566.56 783.639C2560.63 787.711 2554.57 791.074 2548 794C2547.04 794.449 2546.09 794.897 2545.1 795.359C2536.9 799.18 2529.21 802.224 2520.25 803.625C2515.09 804.411 2515.09 804.411 2510.01 805.53C2506.47 806.358 2502.82 806.184 2499.2 806.203C2498.34 806.209 2497.47 806.215 2496.58 806.22C2494.74 806.23 2492.9 806.236 2491.06 806.24C2488.3 806.25 2485.54 806.281 2482.79 806.312C2468.76 806.397 2455.86 804.832 2442.44 800.562C2441.18 800.172 2439.92 799.781 2438.62 799.379C2434.75 797.906 2431.56 796.092 2428 794C2426.34 793.312 2424.68 792.643 2423 792C2407.79 784.561 2394.79 774.006 2384 761C2383.24 760.128 2383.24 760.128 2382.46 759.238C2379 755.246 2379 755.246 2379 753C2378.34 753 2377.68 753 2377 753C2376.6 751.886 2376.6 751.886 2376.19 750.75C2375.14 748.005 2375.14 748.005 2373.44 746C2371.77 743.675 2371.39 741.809 2371 739C2370.34 739 2369.68 739 2369 739C2367.78 735.617 2366.57 732.231 2365.37 728.84C2364.56 726.57 2363.74 724.317 2362.88 722.066C2353.73 697.064 2353.87 666.198 2362 641C2362.24 640.232 2362.48 639.465 2362.73 638.674C2364.07 634.417 2365.48 630.198 2367 626C2367.66 626 2368.32 626 2369 626C2369.17 624.921 2369.17 624.921 2369.34 623.82C2374.01 603.858 2394.96 585.247 2411.31 574.375C2417.3 570.675 2423.52 567.734 2430 565C2430.61 564.738 2431.22 564.476 2431.85 564.206C2455.92 553.986 2485.73 552.13 2511 559Z" fill="#040404"/>
<path d="M833 558C839.496 557.873 845.992 557.786 852.489 557.725C854.699 557.7 856.91 557.666 859.12 557.623C862.295 557.562 865.469 557.534 868.645 557.512C869.635 557.486 870.626 557.46 871.647 557.433C874.194 557.432 876.508 557.472 879 558C881.053 560.32 881.053 560.32 882 563C882.498 564.11 882.995 565.22 883.508 566.363C884.985 569.963 886.441 573.57 887.875 577.187C891.594 586.509 895.29 595.756 899.879 604.691C901.218 607.45 902.234 610.262 903.258 613.148C904.238 615.593 905.612 617.771 906.965 620.023C908.684 623.306 909.781 626.808 910.996 630.301C911.884 632.689 912.88 634.873 914.062 637.125C915.482 639.831 916.53 642.457 917.438 645.375C918.459 648.598 919.689 651.501 921.25 654.5C924.681 661.134 927.384 668.064 930.183 674.981C933.476 683.119 936.936 691.142 940.668 699.09C944 706.369 944 706.369 944 711C944.66 711 945.32 711 946 711C947.105 713.521 948.209 716.042 949.312 718.562C949.776 719.619 949.776 719.619 950.248 720.697C955.962 733.749 955.962 733.749 957.438 737.937C958.742 741.492 960.353 744.802 962.133 748.141C963.034 750.074 963.549 751.92 964 754C964.66 754 965.32 754 966 754C966.99 750.04 967.98 746.08 969 742C969.66 742 970.32 742 971 742C971.34 740.082 971.34 740.082 971.688 738.125C972.709 733.471 974.557 729.665 976.773 725.473C978.266 722.464 979.255 719.421 980.254 716.223C981.551 712.36 983.3 708.699 985 705C986.542 701.559 987.912 698.334 988.875 694.687C989.779 691.723 990.704 689.513 992.125 686.812C994.71 681.809 996.806 676.669 998.875 671.437C999.216 670.576 999.557 669.714 999.908 668.826C1000.6 667.075 1001.29 665.323 1001.98 663.572C1003.55 659.621 1005.14 655.683 1006.75 651.75C1007.02 651.084 1007.29 650.418 1007.57 649.732C1009.23 645.667 1011.1 641.748 1013.08 637.831C1014.24 635.51 1015.26 633.15 1016.25 630.75C1016.67 629.734 1017.09 628.718 1017.52 627.672C1019.71 622.249 1021.88 616.818 1024.04 611.384C1026.33 605.636 1028.68 599.914 1031.09 594.215C1031.79 592.503 1032.41 590.756 1033 589C1033.66 589 1034.32 589 1035 589C1035.08 588.196 1035.16 587.391 1035.25 586.562C1036.21 582.023 1038.03 578.18 1040 574C1040.71 572.461 1041.42 570.919 1042.12 569.375C1042.59 568.366 1042.59 568.366 1043.07 567.336C1044.28 564.305 1045.1 561.136 1046 558C1060.19 558 1074.38 558 1089 558C1087.39 567.631 1083.42 576.355 1079.31 585.172C1076.07 592.174 1073.03 599.255 1070.06 606.375C1067.87 611.622 1065.65 616.843 1063.25 622C1060.83 627.217 1058.88 632.57 1057 638C1056.34 638 1055.68 638 1055 638C1054.92 638.99 1054.84 639.98 1054.75 641C1054.22 644.793 1052.79 647.654 1050.99 651C1049.55 653.918 1048.79 656.848 1048 660C1047.34 660 1046.68 660 1046 660C1045.94 660.763 1045.88 661.526 1045.81 662.312C1044.88 666.542 1043.24 670.017 1041.4 673.918C1039.45 678.217 1037.83 682.624 1036.21 687.055C1035 690 1035 690 1033.54 692.379C1031.17 696.42 1029.79 700.794 1028.25 705.205C1026.89 708.979 1025.49 711.818 1023 715C1022.26 717.101 1022.26 717.101 1021.75 719.375C1020.5 723.875 1018.66 727.876 1016.5 732C1013.98 736.831 1011.99 741.506 1010.7 746.816C1009.84 749.488 1008.45 751.599 1007 754C1006.23 755.92 1005.5 757.858 1004.81 759.812C1004.47 760.788 1004.12 761.764 1003.77 762.77C1003.52 763.506 1003.26 764.242 1003 765C1002.34 765 1001.68 765 1001 765C1000.62 766.196 1000.25 767.392 999.859 768.625C997.66 775.218 994.934 781.593 992.25 788C991.709 789.296 991.169 790.593 990.629 791.889C989.826 793.817 989.023 795.744 988.219 797.67C986.73 801.239 985.254 804.813 983.797 808.395C983.486 809.158 983.175 809.922 982.854 810.709C982.068 812.645 981.284 814.582 980.5 816.52C979.087 819.797 977.543 822.95 975.892 826.112C974.978 828.046 974.344 829.947 973.75 832C971.445 839.368 967.526 846.161 964 853C963.67 853.66 963.34 854.32 963 855C962.34 855 961.68 855 961 855C961 856.32 961 857.64 961 859C960.34 859 959.68 859 959 859C958.732 859.726 958.464 860.451 958.188 861.199C957.013 863.969 955.661 866.309 954 868.812C953.484 869.603 952.969 870.393 952.438 871.207C951.963 871.799 951.489 872.39 951 873C950.34 873 949.68 873 949 873C949 873.66 949 874.32 949 875C948.34 875 947.68 875 947 875C946.691 875.835 946.691 875.835 946.375 876.687C944.423 879.97 942.058 881.707 939 884C938.34 884 937.68 884 937 884C937 884.66 937 885.32 937 886C934 888 934 888 931 888C931 888.66 931 889.32 931 890C928.754 891.009 926.504 892.007 924.25 893C923.616 893.286 922.982 893.572 922.328 893.867C918.916 895.36 916.792 896 913 896C913 896.66 913 897.32 913 898C895.595 901.807 876.91 901.73 860 896C858.853 895.615 857.705 895.229 856.523 894.832C836.429 887.561 836.429 887.561 831 880C831.363 875.838 833.046 872.735 835.062 869.125C835.994 867.437 835.994 867.437 836.945 865.715C837.277 865.118 837.609 864.521 837.95 863.906C839.816 860.519 841.623 857.102 843.438 853.687C844.124 852.4 844.81 851.112 845.496 849.824C845.992 848.892 846.489 847.96 847 847C851.801 848.715 855.425 851.339 859.5 854.344C861.945 855.963 864.282 856.935 867 858C867.66 858.66 868.32 859.32 869 860C879.695 863.867 895.219 863.873 905.613 859.32C913.528 854.942 918.788 849.289 924 842C924.563 841.309 925.127 840.618 925.707 839.906C931.71 832.209 934.78 823.193 938.15 814.131C939 812 939 812 940.082 809.889C941.479 807.014 941.368 805.193 941 802C939.821 798.645 938.334 795.461 936.812 792.25C936.403 791.36 935.993 790.47 935.571 789.552C933.127 784.277 930.6 779.057 927.777 773.973C926.825 771.556 926.861 769.574 927 767C926.34 767 925.68 767 925 767C924.625 766.033 924.25 765.066 923.863 764.07C921.219 757.321 918.478 750.748 915.141 744.305C914.004 742.008 913.049 739.702 912.125 737.312C910.175 732.28 907.886 727.424 905.576 722.551C903.5 718.146 901.619 713.711 899.922 709.148C899.017 706.9 899.017 706.9 897.531 704.59C895.91 701.847 894.841 699.179 893.75 696.187C889.976 686.168 885.765 676.341 880.875 666.812C878.901 662.949 877.21 659.092 875.695 655.027C872.972 647.857 870.019 640.8 867 633.75C866.492 632.549 865.984 631.347 865.461 630.109C862.932 624.195 860.28 618.508 857.067 612.936C855.548 610.181 854.452 607.327 853.375 604.375C852.959 603.26 852.542 602.145 852.113 600.996C851.562 599.513 851.562 599.513 851 598C849.215 593.577 847.172 589.367 845 585.125C842.838 580.859 841.173 576.732 839.785 572.168C838.594 568.879 836.863 565.949 835.086 562.945C834 561 834 561 833 558Z" fill="#040504"/>
<path d="M2262 567C2262 567.66 2262 568.32 2262 569C2262.57 569.11 2263.14 569.219 2263.73 569.332C2273.3 572.148 2283.38 581.992 2289 590C2289 590.99 2289 591.98 2289 593C2289.66 593 2290.32 593 2291 593C2292.45 594.987 2293.74 596.895 2295 599C2295.63 600.027 2296.26 601.055 2296.91 602.113C2299.36 606.43 2300.98 610.935 2302.56 615.625C2303 616.816 2303 616.816 2303.44 618.031C2310.38 638.458 2309.41 660.363 2309.3 681.63C2309.29 685.946 2309.28 690.262 2309.28 694.578C2309.27 702.716 2309.25 710.854 2309.22 718.992C2309.18 728.272 2309.17 737.551 2309.15 746.831C2309.12 765.887 2309.06 784.944 2309 804C2294.81 804 2280.62 804 2266 804C2265.98 799.433 2265.96 794.866 2265.94 790.161C2265.87 775.05 2265.8 759.939 2265.71 744.827C2265.66 735.668 2265.62 726.509 2265.58 717.349C2265.55 709.361 2265.51 701.373 2265.46 693.385C2265.43 689.16 2265.41 684.935 2265.4 680.709C2265.38 676.723 2265.36 672.736 2265.33 668.75C2265.32 667.296 2265.32 665.842 2265.32 664.388C2265.29 651.92 2264.79 640.219 2259 629C2258.63 628.178 2258.26 627.355 2257.88 626.508C2251.26 612.197 2239.02 602.468 2224.39 597.031C2216.64 594.772 2208.96 594.722 2200.94 594.687C2199.85 594.682 2198.76 594.676 2197.64 594.671C2187.42 594.761 2177.51 595.935 2167.94 599.625C2167.26 599.884 2166.59 600.142 2165.89 600.409C2152.34 605.877 2141.33 616.487 2134 629C2133.63 629.623 2133.27 630.245 2132.89 630.887C2125.13 645.181 2123.71 661.464 2123.68 677.419C2123.67 678.81 2123.66 680.201 2123.65 681.592C2123.62 685.325 2123.61 689.057 2123.6 692.79C2123.58 696.707 2123.55 700.624 2123.53 704.541C2123.48 711.939 2123.44 719.337 2123.41 726.735C2123.37 735.166 2123.32 743.596 2123.27 752.027C2123.17 769.351 2123.08 786.676 2123 804C2109.14 804 2095.28 804 2081 804C2081 723.15 2081 642.3 2081 559C2094.53 559 2108.06 559 2122 559C2122.33 570.22 2122.66 581.44 2123 593C2124.79 590.999 2126.59 588.999 2128.44 586.937C2135.17 579.569 2142.15 573.717 2151 569C2152.29 568.256 2152.29 568.256 2153.6 567.496C2159.08 564.367 2163.84 562.319 2170 561C2170.99 560.34 2171.98 559.68 2173 559C2202.72 551.387 2234.05 555.347 2262 567Z" fill="#040404"/>
<path d="M1641 558C1655.19 558 1669.38 558 1684 558C1684 639.18 1684 720.36 1684 804C1670.14 804 1656.28 804 1642 804C1642 793.11 1642 782.22 1642 771C1637.42 773.652 1637.42 773.652 1634.31 777.188C1627.43 785.505 1618.33 790.825 1609 796C1607.89 796.683 1606.77 797.366 1605.63 798.07C1601.95 800.171 1598.3 801.201 1594.19 802.125C1593.54 802.281 1592.89 802.437 1592.22 802.598C1590.87 802.919 1589.51 803.228 1588.15 803.525C1586.71 803.844 1585.27 804.187 1583.84 804.553C1576.48 806.295 1569.16 806.304 1561.64 806.261C1559.44 806.25 1557.24 806.261 1555.03 806.273C1547.79 806.281 1541 806.011 1534 804C1532.61 803.673 1531.22 803.351 1529.83 803.035C1528.49 802.712 1527.15 802.388 1525.81 802.062C1524.8 801.828 1524.8 801.828 1523.78 801.588C1519.5 800.542 1515.87 799.09 1512 797C1510.26 796.128 1510.26 796.128 1508.48 795.238C1500.76 791.285 1493.2 787.214 1487 781C1487 780.34 1487 779.68 1487 779C1486.41 778.743 1485.82 778.487 1485.21 778.223C1478.36 774.439 1474.41 766.754 1471 760C1470.33 758.717 1469.66 757.435 1468.98 756.152C1468.26 754.748 1467.54 753.343 1466.81 751.938C1466.47 751.277 1466.12 750.616 1465.77 749.936C1463.45 745.351 1462.12 741.014 1461 736C1460.67 735.01 1460.34 734.02 1460 733C1456.99 716.106 1457.74 698.764 1457.8 681.674C1457.81 677.35 1457.81 673.026 1457.81 668.702C1457.82 660.542 1457.84 652.383 1457.86 644.224C1457.88 634.923 1457.89 625.621 1457.9 616.32C1457.92 597.213 1457.96 578.107 1458 559C1471.86 559 1485.72 559 1500 559C1500.01 563.268 1500.03 567.536 1500.04 571.933C1500.09 586.087 1500.16 600.24 1500.24 614.393C1500.28 622.968 1500.32 631.543 1500.35 640.119C1500.37 647.601 1500.4 655.083 1500.45 662.566C1500.47 666.52 1500.49 670.474 1500.5 674.429C1500.06 703.438 1500.06 703.438 1508 731C1508.68 732.732 1508.68 732.732 1509.38 734.5C1516.57 749.996 1526.81 759.299 1542.88 765.375C1561.99 772.096 1584.34 768.946 1602.38 760.688C1616.74 752.868 1628.25 741.227 1633.81 725.562C1635.23 720.622 1636.23 715.563 1637.25 710.527C1638 707 1638 707 1639.03 703.645C1640.54 697.563 1640.31 691.381 1640.32 685.148C1640.33 683.758 1640.34 682.368 1640.35 680.977C1640.38 677.224 1640.39 673.47 1640.4 669.717C1640.42 665.786 1640.45 661.856 1640.47 657.926C1640.52 650.492 1640.56 643.058 1640.59 635.625C1640.63 627.158 1640.68 618.691 1640.73 610.225C1640.83 592.816 1640.92 575.408 1641 558Z" fill="#050605"/>
<path d="M2957.26 555.815C2959.37 555.813 2961.48 555.794 2963.59 555.775C2976.49 555.721 2988.95 557.202 3001.5 560.312C3002.39 560.531 3003.28 560.749 3004.2 560.973C3019.11 564.709 3031.84 570.044 3045 578C3044.35 581.056 3043.32 583.547 3041.88 586.312C3039.6 590.773 3037.43 595.275 3035.31 599.812C3035.02 600.446 3034.72 601.08 3034.41 601.734C3032.84 605.119 3031.35 608.517 3030 612C3026.66 611.443 3023.97 610.648 3021 609C3021 608.34 3021 607.68 3021 607C3020.15 606.729 3019.31 606.459 3018.44 606.18C3014.89 604.962 3011.46 603.565 3008 602.125C2984.09 592.457 2951.85 585.92 2926.94 595.625C2926.25 595.888 2925.57 596.151 2924.86 596.422C2917.23 599.499 2910.86 603.508 2907 611C2906.34 611 2905.68 611 2905 611C2901.23 623.287 2901.23 623.287 2903.12 635.625C2903.74 636.409 2904.36 637.192 2905 638C2905.39 638.626 2905.78 639.253 2906.18 639.898C2910.11 645.878 2914.52 648.255 2921 651C2921.72 651.358 2922.44 651.717 2923.19 652.086C2928.43 654.649 2933.68 656.005 2939.37 657.219C2941.9 657.764 2944.4 658.338 2946.91 658.969C2954.62 660.893 2962.26 662.408 2970.12 663.5C2978.67 664.699 2986.73 666.515 2995 669C2995.68 669.199 2996.36 669.398 2997.06 669.603C3004.7 671.834 3012.01 674.143 3019 678C3019.79 678.367 3020.57 678.735 3021.38 679.113C3033.1 684.607 3040.85 692.271 3048 703C3048 704.32 3048 705.64 3048 707C3048.66 707 3049.32 707 3050 707C3056.63 724.344 3056.11 743.85 3049 761C3045.12 768.904 3039.41 775.979 3033 782C3032.34 782 3031.68 782 3031 782C3031 782.66 3031 783.32 3031 784C3022.15 791.56 3006.93 800 2995 800C2994.67 800.99 2994.34 801.98 2994 803C2967.95 808.356 2937.06 808.513 2911 803C2910.31 802.856 2909.63 802.712 2908.92 802.563C2905.26 801.782 2901.62 800.932 2898 800C2898 799.34 2898 798.68 2898 798C2896.99 798.062 2895.98 798.124 2894.94 798.188C2891.38 798.018 2889.27 797.486 2886.12 795.965C2883.47 794.757 2880.75 793.845 2878 792.875C2868.24 789.158 2859.02 783.698 2851 777C2851.6 772.984 2852.89 769.989 2854.84 766.438C2855.41 765.393 2855.98 764.349 2856.56 763.273C2857.16 762.193 2857.76 761.113 2858.38 760C2858.97 758.92 2859.56 757.84 2860.16 756.727C2861.76 753.81 2863.37 750.897 2865 748C2865.5 747.06 2865.99 746.121 2866.51 745.152C2867 744.442 2867.49 743.732 2868 743C2868.99 743 2869.98 743 2871 743C2871 743.66 2871 744.32 2871 745C2872.32 745 2873.64 745 2875 745C2875 745.66 2875 746.32 2875 747C2875.7 747.268 2876.4 747.536 2877.12 747.812C2880.99 749.41 2884.71 751.026 2888.06 753.562C2890.28 755.206 2892.44 755.985 2895 757C2895.72 757.367 2896.45 757.735 2897.19 758.113C2905.54 762.336 2914.37 764.307 2923.43 766.393C2925.55 766.894 2927.66 767.464 2929.76 768.051C2934.09 769.134 2938.22 769.306 2942.67 769.301C2943.88 769.307 2943.88 769.307 2945.11 769.314C2946.8 769.319 2948.49 769.32 2950.18 769.316C2952.73 769.313 2955.28 769.336 2957.83 769.361C2974.79 769.428 2991.57 766.408 3004.19 754.043C3010.13 747.346 3010.59 741.48 3010.32 732.57C3009.68 725.387 3007.64 720.743 3002 716C2996.86 712.001 2991.99 709.494 2985.88 707.312C2985.04 707.009 2984.21 706.706 2983.35 706.394C2977.6 704.376 2972.04 703.051 2965.96 702.484C2963.39 702.064 2961.51 701.469 2959.13 700.508C2955.17 698.951 2951.34 698.444 2947.12 698.125C2938.41 697.287 2930.35 695.077 2921.99 692.574C2919.31 691.8 2916.6 691.181 2913.88 690.562C2895.74 686.068 2877.48 678.262 2867.05 661.953C2865.62 659.333 2864.3 656.685 2863 654C2862.34 653.01 2861.68 652.02 2861 651C2855.66 635.525 2856.09 617.096 2862.83 602.16C2868.72 590.073 2877.13 580.835 2888 573C2888.96 572.225 2888.96 572.225 2889.95 571.434C2892.22 569.843 2894.4 568.965 2897 568C2897.83 567.633 2898.66 567.265 2899.52 566.887C2908.13 563.109 2916.95 560.492 2926 558C2926.62 557.825 2927.24 557.651 2927.87 557.471C2937.37 555.368 2947.56 555.814 2957.26 555.815Z" fill="#050505"/>
<path d="M1831.2 555.664C1833.7 555.688 1836.2 555.684 1838.7 555.678C1853.65 555.701 1867.5 557.518 1881.94 561.625C1883.11 561.95 1884.28 562.275 1885.49 562.609C1888.33 563.397 1891.17 564.194 1894 565C1894 565.66 1894 566.32 1894 567C1894.99 567.103 1895.98 567.206 1897 567.312C1901.28 567.908 1905 569.386 1909 571C1909 571.66 1909 572.32 1909 573C1909.87 573.268 1910.73 573.536 1911.62 573.812C1914.92 574.971 1917.91 576.382 1921 578C1920.31 581.429 1918.98 584.212 1917.38 587.312C1914.57 592.821 1911.93 598.387 1909.36 604.011C1908.06 606.843 1906.73 609.398 1905 612C1900.77 611.615 1898.53 609.906 1895.21 607.398C1888.65 603.247 1880.62 601.095 1873.25 598.733C1871.81 598.263 1870.37 597.776 1868.94 597.269C1863.59 595.386 1858.36 594.14 1852.75 593.312C1851.9 593.186 1851.04 593.059 1850.16 592.929C1836.21 591.043 1821.98 591.548 1808 593C1808 593.66 1808 594.32 1808 595C1807.09 595.206 1806.19 595.412 1805.25 595.625C1794.83 598.706 1786.05 603.759 1780 613C1777.41 620.207 1776.95 627.432 1778 635C1779.78 638.667 1782.03 641.242 1785 644C1785.54 644.51 1786.07 645.021 1786.62 645.547C1791.43 649.799 1795.61 652.257 1802 653C1802 653.66 1802 654.32 1802 655C1802.75 655.098 1803.51 655.196 1804.28 655.297C1814.04 656.671 1823.55 658.83 1833.01 661.586C1836.07 662.223 1839.14 662.361 1842.25 662.562C1844.14 662.688 1844.14 662.688 1846.08 662.816C1847.04 662.877 1848.01 662.938 1849 663C1849 663.66 1849 664.32 1849 665C1849.61 665.049 1850.21 665.098 1850.84 665.148C1857 665.698 1862.96 666.676 1869 668C1869 668.66 1869 669.32 1869 670C1870.03 670.062 1871.06 670.124 1872.12 670.187C1885.52 671.856 1900.79 679.087 1911 688C1911 688.66 1911 689.32 1911 690C1911.59 690.249 1912.18 690.498 1912.79 690.754C1920.57 695.136 1925.12 705.688 1927.57 713.897C1929.25 720.509 1929.37 727.018 1929.38 733.812C1929.4 734.911 1929.42 736.01 1929.45 737.143C1929.5 752.022 1923.29 767.237 1913 778.102C1905.34 785.384 1897.68 790.76 1888 795C1886.88 795.514 1885.76 796.029 1884.61 796.559C1874.93 800.758 1865.2 802.854 1854.82 804.614C1852.91 804.938 1852.91 804.938 1851 806C1848.4 806.099 1845.83 806.14 1843.24 806.133C1842.46 806.134 1841.67 806.135 1840.87 806.136C1839.2 806.136 1837.53 806.135 1835.86 806.13C1833.37 806.125 1830.87 806.13 1828.37 806.137C1814.41 806.143 1800.76 805.563 1787 803C1785.92 802.856 1784.84 802.711 1783.72 802.562C1782.82 802.377 1781.93 802.191 1781 802C1780.67 801.34 1780.34 800.68 1780 800C1778.14 799.364 1778.14 799.364 1775.87 798.957C1775.01 798.774 1774.14 798.59 1773.25 798.401C1771.86 798.11 1771.86 798.11 1770.44 797.812C1760.67 795.654 1751.96 792.399 1743 788C1743 787.34 1743 786.68 1743 786C1740.03 785.01 1737.06 784.02 1734 783C1734 782.34 1734 781.68 1734 781C1733.42 780.897 1732.85 780.794 1732.25 780.687C1729.68 779.902 1728.06 778.695 1726 777C1726.58 772.116 1728.75 768.537 1731.19 764.375C1732 762.953 1732.82 761.532 1733.64 760.109C1734.04 759.414 1734.44 758.718 1734.85 758.002C1736.44 755.231 1737.97 752.431 1739.5 749.625C1739.96 748.772 1740.43 747.918 1740.91 747.039C1741.62 745.703 1742.32 744.356 1743 743C1743.99 743 1744.98 743 1746 743C1746 743.66 1746 744.32 1746 745C1746.85 745.227 1747.69 745.454 1748.56 745.687C1752.04 747.016 1754.4 748.595 1757.29 750.879C1759.18 752.115 1760.8 752.572 1763 753C1763 753.66 1763 754.32 1763 755C1763.84 755.271 1764.67 755.541 1765.53 755.82C1768.55 756.848 1771.53 757.955 1774.5 759.106C1782.55 762.208 1790.65 764.823 1799 767C1799.81 767.258 1800.63 767.516 1801.47 767.782C1809.89 770.254 1817.73 770.333 1826.41 770.019C1828.73 769.938 1831.06 769.894 1833.38 769.854C1846.13 769.528 1860.04 768.077 1871 761C1871.68 760.569 1872.37 760.139 1873.07 759.695C1878.15 756.224 1881.17 752.422 1884 747C1884.54 746.145 1884.54 746.145 1885.09 745.273C1886.45 741.859 1886.47 738.379 1886.62 734.75C1886.66 734.005 1886.7 733.26 1886.74 732.492C1886.84 730.662 1886.92 728.831 1887 727C1886.34 727 1885.68 727 1885 727C1884.67 726.221 1884.67 726.221 1884.34 725.426C1882.01 720.319 1879.64 717.342 1875 714C1874.01 713.278 1873.02 712.556 1872 711.812C1867.88 709.323 1863.66 708.076 1859 707C1859 706.34 1859 705.68 1859 705C1858.04 704.874 1857.07 704.747 1856.08 704.617C1851.59 703.976 1847.18 703.046 1842.75 702.125C1830.22 699.573 1817.64 697.32 1804.89 696.25C1802.39 695.92 1800.25 695.124 1798 694C1798 693.34 1798 692.68 1798 692C1797.37 691.879 1796.74 691.758 1796.09 691.633C1774.8 687.465 1755.31 680.718 1742.31 662.156C1733.2 647.143 1731.02 627.653 1734.84 610.527C1740.33 592.64 1753.62 577.779 1770 569C1776.06 565.891 1782.14 563.468 1788.71 561.676C1791.01 561.05 1791.01 561.05 1793.14 560.058C1805.11 555.631 1818.59 555.536 1831.2 555.664Z" fill="#050505"/>
<path d="M2807 574C2807.74 574.415 2808.49 574.83 2809.26 575.258C2810.85 576.151 2812.43 577.071 2814 578C2813.56 581.78 2812.36 584.064 2810.18 587.137C2807.64 591.163 2805.89 595.641 2804 600C2803.68 600.748 2803.35 601.495 2803.02 602.266C2802.34 603.841 2801.67 605.42 2801 607C2800.34 607 2799.68 607 2799 607C2798.67 608.32 2798.34 609.64 2798 611C2792.11 610.547 2787.98 607.915 2783 605C2766 595.111 2745.4 592.393 2726.06 592.562C2724.95 592.567 2724.95 592.567 2723.82 592.572C2708.3 592.666 2695.12 593.942 2682 603C2681.28 603.356 2680.55 603.712 2679.8 604.078C2675.63 606.213 2674.52 612.852 2673 617C2672.01 617 2671.02 617 2670 617C2670 622.61 2670 628.22 2670 634C2670.99 634.33 2671.98 634.66 2673 635C2674.96 637.985 2675 639.264 2675 643C2675.87 643.42 2675.87 643.42 2676.76 643.848C2678.88 644.937 2680.82 646.136 2682.81 647.437C2686.44 649.732 2690.01 651.419 2694 653C2694.85 653.351 2695.69 653.701 2696.56 654.062C2701.9 656.117 2707.29 657.637 2712.87 658.875C2713.64 659.046 2714.41 659.218 2715.2 659.395C2721.79 660.821 2728.41 661.933 2735.06 663C2742.41 664.18 2749.69 665.476 2756.94 667.187C2758 667.438 2758 667.438 2759.09 667.693C2763.86 668.862 2763.86 668.862 2765 670C2766.24 670.247 2767.47 670.495 2768.75 670.75C2777.98 672.722 2786.69 676.601 2795 681C2795 681.66 2795 682.32 2795 683C2795.72 683.246 2796.45 683.492 2797.19 683.746C2805.52 687.466 2811.58 695.239 2816 703C2816.39 703.669 2816.78 704.338 2817.18 705.027C2822.09 714.079 2822.34 723.312 2822.31 733.437C2822.33 734.601 2822.34 735.764 2822.36 736.963C2822.37 753.688 2815.52 768 2804.05 780.051C2798.34 785.491 2788.24 794 2780 794C2780 794.66 2780 795.32 2780 796C2774.47 798.753 2769.36 800.452 2763.27 801.5C2760.79 801.947 2760.79 801.947 2757.94 803.562C2751.63 806.651 2743.97 806.158 2737.05 806.168C2735.83 806.173 2735.83 806.173 2734.59 806.178C2732.88 806.183 2731.18 806.185 2729.47 806.185C2726.87 806.187 2724.28 806.206 2721.68 806.225C2720.02 806.228 2718.35 806.229 2716.68 806.23C2715.91 806.238 2715.15 806.245 2714.36 806.252C2709.57 806.232 2705.6 805.482 2701 804C2699 803.696 2697 803.425 2695 803.187C2683.85 801.559 2673.34 797.355 2663 793C2663 792.34 2663 791.68 2663 791C2661.8 790.903 2661.8 790.903 2660.57 790.805C2655.81 789.731 2652.08 787.546 2647.87 785.125C2647.08 784.678 2646.28 784.23 2645.46 783.77C2641.79 781.694 2638.34 779.582 2635 777C2635.62 774.04 2636.57 771.716 2638.07 769.094C2638.7 767.986 2638.7 767.986 2639.34 766.855C2639.78 766.078 2640.23 765.301 2640.69 764.5C2644.68 757.429 2648.47 750.316 2652 743C2655 743 2655 743 2657.5 745.437C2658.32 746.283 2659.15 747.129 2660 748C2660.99 748.33 2661.98 748.66 2663 749C2664.33 750.333 2665.67 751.667 2667 753C2669.95 754.992 2672.49 756.35 2676 757C2676 757.66 2676 758.32 2676 759C2676.5 759.106 2677 759.211 2677.52 759.32C2680.26 760.071 2682.88 761.064 2685.53 762.07C2708.89 770.79 2736.79 773.014 2760.21 763.059C2769.26 758.763 2773.57 752.857 2778 744C2779.06 731.849 2779.06 731.849 2775.42 720.574C2773.12 718.026 2770.48 716.099 2767.61 714.227C2767.08 713.822 2766.55 713.417 2766 713C2766 712.34 2766 711.68 2766 711C2765.34 710.917 2764.68 710.835 2764 710.75C2759.96 709.74 2755.01 708.012 2752 705C2749.94 704.583 2747.88 704.219 2745.8 703.879C2744.53 703.666 2743.26 703.452 2741.95 703.232C2739.92 702.898 2737.89 702.565 2735.86 702.232C2733.91 701.909 2731.95 701.582 2729.99 701.254C2728.23 700.965 2728.23 700.965 2726.44 700.67C2722.89 699.978 2719.47 699.017 2716 698C2714.13 697.717 2712.25 697.467 2710.37 697.25C2701.5 695.961 2693.03 693.282 2684.46 690.724C2682.3 690.088 2680.14 689.481 2677.96 688.895C2661.26 684.358 2647.85 677.894 2637 664C2636.59 663.481 2636.18 662.963 2635.76 662.428C2625.23 648.492 2625.55 629.977 2627.41 613.359C2630.61 597.569 2642.34 583.304 2655.12 574C2659.89 570.919 2664.83 568.33 2670 566C2671.1 565.495 2671.1 565.495 2672.22 564.98C2677.67 562.636 2683.3 560.943 2689 559.312C2689.74 559.098 2690.47 558.883 2691.23 558.662C2726.73 548.836 2775.53 555.597 2807 574Z" fill="#040505"/>
<path d="M1178 654C1208.64 653.96 1208.64 653.96 1223.85 653.95C1232.05 653.944 1240.26 653.937 1248.46 653.925C1254.96 653.915 1261.46 653.908 1267.96 653.906C1271.39 653.905 1274.83 653.902 1278.26 653.894C1305.52 653.842 1328.47 653.837 1351 671C1355 675.41 1355 675.41 1355 678C1355.66 678 1356.32 678 1357 678C1357.25 678.66 1357.5 679.32 1357.75 680C1358.99 682.974 1360.43 685.734 1362 688.547C1364.9 695.667 1365.32 702.828 1365.25 710.438C1365.26 711.315 1365.27 712.192 1365.27 713.096C1365.23 726.986 1361.57 738.719 1352 749C1331.25 767.621 1303.1 767.473 1276.73 767.304C1273.25 767.285 1269.77 767.284 1266.28 767.28C1259.72 767.271 1253.15 767.246 1246.59 767.216C1238.36 767.179 1230.14 767.163 1221.91 767.146C1207.27 767.117 1192.64 767.057 1178 767C1178 729.71 1178 692.42 1178 654Z" fill="#D9D9D9"/>
<path d="M1184.59 508.853C1186.01 508.854 1186.01 508.854 1187.47 508.855C1188.96 508.85 1188.96 508.85 1190.48 508.845C1193.8 508.835 1197.12 508.833 1200.43 508.832C1202.74 508.829 1205.05 508.825 1207.36 508.822C1212.22 508.816 1217.09 508.814 1221.95 508.815C1228.13 508.815 1234.32 508.801 1240.5 508.784C1245.29 508.773 1250.07 508.771 1254.85 508.771C1257.13 508.77 1259.41 508.766 1261.68 508.758C1288.19 508.676 1317.43 509.177 1337.81 528.637C1349.05 540.757 1350.59 553.781 1350.34 569.742C1349.78 582.794 1342.58 594.241 1333.34 603.148C1328.99 606.592 1324.05 608.771 1319 611C1317.99 611.478 1317.99 611.478 1316.96 611.965C1305.56 617.208 1292.46 618.313 1280.08 618.227C1278.4 618.227 1278.4 618.227 1276.68 618.228C1273.01 618.227 1269.34 618.211 1265.67 618.195C1263.11 618.192 1260.55 618.189 1257.99 618.187C1251.96 618.18 1245.94 618.164 1239.92 618.144C1233.05 618.122 1226.18 618.111 1219.32 618.101C1205.21 618.08 1191.11 618.045 1177 618C1176.98 603.936 1176.96 589.872 1176.95 575.807C1176.94 569.278 1176.94 562.748 1176.92 556.218C1176.91 549.922 1176.91 543.626 1176.91 537.331C1176.9 534.923 1176.9 532.515 1176.89 530.107C1176.89 526.747 1176.89 523.387 1176.89 520.028C1176.88 519.021 1176.88 518.015 1176.88 516.978C1176.88 516.068 1176.88 515.158 1176.88 514.22C1176.88 513.027 1176.88 513.027 1176.88 511.81C1177.17 507.466 1181.12 508.871 1184.59 508.853Z" fill="#F9F9F8"/>
<path d="M2015 559C2015.99 559 2016.98 559 2018 559C2018 639.85 2018 720.7 2018 804C2003.48 804 1988.96 804 1974 804C1973.62 775.897 1973.3 747.795 1973.12 719.69C1973.03 706.64 1972.91 693.591 1972.72 680.542C1972.55 669.167 1972.44 657.792 1972.4 646.415C1972.38 640.392 1972.33 634.373 1972.2 628.351C1972.09 622.677 1972.05 617.008 1972.08 611.333C1972.07 609.256 1972.04 607.178 1971.97 605.102C1971.52 589.82 1971.52 589.82 1975.68 585.098C1979.75 581.689 1984.23 579.259 1989.01 576.988C1991.64 575.684 1993.96 574.057 1996.31 572.312C2000.01 569.687 2003.74 567.106 2007.5 564.562C2008.5 563.883 2009.5 563.204 2010.53 562.504C2013 561 2013 561 2015 561C2015 560.34 2015 559.68 2015 559Z" fill="#010201"/>
<path d="M2476.68 591.554C2478.73 591.562 2480.79 591.534 2482.84 591.502C2503.63 591.39 2521.45 598.807 2536.3 613.251C2537.88 614.822 2539.45 616.405 2541 618C2541.99 618.99 2541.99 618.99 2543 620C2543 620.99 2543 621.98 2543 623C2543.99 623.33 2544.98 623.66 2546 624C2547.54 626.398 2547.54 626.398 2549.06 629.375C2550.62 632.37 2552.13 635.19 2554 638C2554.56 640.086 2554.56 640.086 2555 642.375C2555.7 645.778 2556.66 648.788 2558 652C2559.12 656.266 2559 659.334 2559 664C2506.53 664 2454.06 664 2400 664C2400.68 657.883 2401.39 652.782 2403.25 647.063C2403.47 646.373 2403.69 645.684 2403.92 644.973C2408.11 632.254 2414.93 622.739 2424 613C2424.58 612.355 2425.16 611.711 2425.75 611.047C2432.98 603.313 2442.08 598.409 2452 595C2452.77 594.732 2453.54 594.464 2454.34 594.188C2461.77 591.889 2468.96 591.506 2476.68 591.554Z" fill="#F8F8F7"/>
<path d="M1975 587C1978.35 590.35 1978.35 591.405 1978.39 595.936C1978.38 596.752 1978.37 597.568 1978.36 598.409C1978.36 599.277 1978.37 600.146 1978.37 601.04C1978.37 603.961 1978.36 606.881 1978.34 609.802C1978.34 611.891 1978.34 613.98 1978.34 616.069C1978.34 621.75 1978.33 627.432 1978.3 633.113C1978.29 639.047 1978.28 644.981 1978.28 650.914C1978.27 662.155 1978.25 673.396 1978.22 684.637C1978.18 697.433 1978.17 710.228 1978.15 723.024C1978.12 749.349 1978.07 775.675 1978 802C1990.21 802 2002.42 802 2015 802C2015 802.33 2015 802.66 2015 803C2001.8 803 1988.6 803 1975 803C1975 731.72 1975 660.44 1975 587Z" fill="#101110"/>
<path d="M1183 469C1182.34 469.99 1181.68 470.98 1181 472C1179.01 472.361 1179.01 472.361 1176.55 472.341C1175.63 472.34 1174.71 472.34 1173.76 472.34C1172.76 472.324 1171.77 472.309 1170.74 472.293C1169.72 472.289 1168.71 472.284 1167.66 472.28C1164.4 472.263 1161.14 472.226 1157.88 472.187C1155.67 472.172 1153.46 472.159 1151.25 472.146C1145.84 472.113 1140.42 472.063 1135 472C1135 471.01 1135 470.02 1135 469C1151.05 467.701 1166.93 468.267 1183 469Z" fill="#F6F6F3"/>
<path d="M2496 696C2506.23 696 2516.46 696 2527 696C2527 696.33 2527 696.66 2527 697C2532.45 697.495 2532.45 697.495 2538 698C2534.23 699.883 2533.05 700.25 2529.09 700.23C2528.16 700.229 2527.23 700.227 2526.28 700.225C2525.32 700.212 2524.36 700.2 2523.38 700.188C2522.41 700.187 2521.44 700.186 2520.45 700.186C2513.28 700.141 2513.28 700.141 2511 699C2508.28 698.928 2505.59 698.907 2502.88 698.938C2501.74 698.944 2501.74 698.944 2500.59 698.951C2498.73 698.963 2496.86 698.981 2495 699C2495.33 698.01 2495.66 697.02 2496 696Z" fill="#F7F7F6"/>
<path d="M1453 638C1454.32 638.33 1455.64 638.66 1457 639C1457 653.85 1457 668.7 1457 684C1456.67 684 1456.34 684 1456 684C1455.67 675.42 1455.34 666.84 1455 658C1454.34 658.33 1453.68 658.66 1453 659C1453 652.07 1453 645.14 1453 638Z" fill="#F7F8F5"/>
<path d="M439 474C444.481 473.876 449.961 473.786 455.443 473.725C457.307 473.7 459.172 473.666 461.036 473.623C463.717 473.562 466.396 473.534 469.078 473.512C469.911 473.486 470.743 473.46 471.601 473.434C477.395 473.431 477.395 473.431 480.558 476.406C482 479 482 479 482 481C481.01 480.67 480.02 480.34 479 480C478.505 478.02 478.505 478.02 478 476C465.13 476 452.26 476 439 476C439 475.34 439 474.68 439 474Z" fill="#292928"/>
<path d="M1301 648C1304.3 648 1307.6 648 1311 648C1310.67 648.66 1310.34 649.32 1310 650C1309.34 650 1308.68 650 1308 650C1310.14 652.355 1312.14 653.641 1315 655C1313.27 654.885 1311.54 654.757 1309.81 654.625C1308.85 654.555 1307.89 654.486 1306.89 654.414C1303.98 653.998 1301.67 653.201 1299 652C1299.66 650.68 1300.32 649.36 1301 648Z" fill="#141515"/>
<path d="M1642 782C1642.05 784.083 1642.09 786.166 1642.13 788.25C1642.15 789.41 1642.17 790.57 1642.2 791.766C1642.01 794.847 1641.72 796.479 1640 799C1639.34 799.33 1638.68 799.66 1638 800C1637.92 797.562 1637.86 795.126 1637.81 792.688C1637.79 791.997 1637.76 791.307 1637.74 790.596C1637.66 785.462 1637.66 785.462 1639.45 783.02C1641 782 1641 782 1642 782Z" fill="#F4F4F4"/>
<path d="M1928 721C1928.33 721 1928.66 721 1929 721C1929.09 725.125 1929.14 729.249 1929.19 733.375C1929.21 734.531 1929.24 735.688 1929.26 736.879C1929.33 744.122 1928.58 750.214 1926 757C1925.67 757 1925.34 757 1925 757C1925 753.37 1925 749.74 1925 746C1925.99 745.67 1926.98 745.34 1928 745C1928 737.08 1928 729.16 1928 721Z" fill="#232321"/>
<path d="M2017 560C2017 567.59 2017 575.18 2017 583C2016.67 583 2016.34 583 2016 583C2015.67 576.73 2015.34 570.46 2015 564C2014.34 564 2013.68 564 2013 564C2013 564.66 2013 565.32 2013 566C2011.68 565.34 2010.36 564.68 2009 564C2014.75 560 2014.75 560 2017 560Z" fill="#30302E"/>
<path d="M1180 768C1180.83 768.23 1180.83 768.23 1181.67 768.465C1184.2 769.047 1186.66 769.324 1189.25 769.562C1190.14 769.646 1191.03 769.73 1191.95 769.816C1192.63 769.877 1193.3 769.938 1194 770C1194 770.66 1194 771.32 1194 772C1189.05 772 1184.1 772 1179 772C1179.33 770.68 1179.66 769.36 1180 768Z" fill="#090A08"/>
<path d="M1796 767C1798.97 767.33 1801.94 767.66 1805 768C1801.73 770.969 1799.62 771.344 1795.25 771.188C1793.77 771.147 1793.77 771.147 1792.27 771.105C1791.14 771.053 1791.14 771.053 1790 771C1790 770.34 1790 769.68 1790 769C1791.98 768.67 1793.96 768.34 1796 768C1796 767.67 1796 767.34 1796 767Z" fill="#0F100E"/>
<path d="M1750 671C1752.31 672.65 1754.62 674.3 1757 676C1756.34 677.65 1755.68 679.3 1755 681C1754.01 680.67 1753.02 680.34 1752 680C1752 679.01 1752 678.02 1752 677C1751.01 676.67 1750.02 676.34 1749 676C1749.66 675.67 1750.32 675.34 1751 675C1750.67 673.68 1750.34 672.36 1750 671Z" fill="#E9E8E6"/>
<path d="M1986 579C1986.66 579.33 1987.32 579.66 1988 580C1985.18 582.928 1982.35 585.68 1979 588C1978.01 587.67 1977.02 587.34 1976 587C1979.02 583.745 1982.26 581.382 1986 579Z" fill="#292928"/>
<path d="M442.562 474.938C443.769 474.968 443.769 474.968 445 475C444.34 477.31 443.68 479.62 443 482C442.67 480.68 442.34 479.36 442 478C441.34 478 440.68 478 440 478C440 480.64 440 483.28 440 486C439.67 486 439.34 486 439 486C438.973 484.354 438.954 482.708 438.938 481.062C438.926 480.146 438.914 479.229 438.902 478.285C439.042 475.026 439.284 475.017 442.562 474.938Z" fill="#0C0C0D"/>
<path d="M1543 801C1544.94 801.25 1544.94 801.25 1547 802C1547.66 802.99 1548.32 803.98 1549 805C1543.85 805.09 1539.08 804.847 1534 804C1534 803.67 1534 803.34 1534 803C1536.05 802.772 1538.1 802.544 1540.15 802.316C1542.01 802.181 1542.01 802.181 1543 801Z" fill="#161616"/>
<path d="M1569 801C1571.31 801 1573.62 801 1576 801C1576.33 801.99 1576.66 802.98 1577 804C1572.55 804.495 1572.55 804.495 1568 805C1568.33 803.68 1568.66 802.36 1569 801Z" fill="#0A0B0B"/>
<path d="M1460 729C1464.25 735.375 1464.25 735.375 1464.62 740.188C1464.7 741.089 1464.77 741.99 1464.85 742.918C1464.9 743.605 1464.95 744.292 1465 745C1464.34 744.67 1463.68 744.34 1463 744C1461.54 739.029 1460.64 734.133 1460 729Z" fill="#60615F"/>
<path d="M837 562C838.98 562 840.96 562 843 562C842.67 562.66 842.34 563.32 842 564C841.34 564 840.68 564 840 564C840 565.98 840 567.96 840 570C838.5 568.812 838.5 568.812 837 567C836.812 564.312 836.812 564.312 837 562Z" fill="#1D1C1C"/>
<path d="M2409 577C2409 577.66 2409 578.32 2409 579C2407.03 580.727 2407.03 580.727 2404.5 582.625C2403.66 583.257 2402.83 583.888 2401.97 584.539C2401.32 585.021 2400.67 585.503 2400 586C2399.34 585.67 2398.68 585.34 2398 585C2399.45 583.661 2400.91 582.329 2402.38 581C2403.19 580.257 2404 579.515 2404.84 578.75C2407 577 2407 577 2409 577Z" fill="#1F1F1E"/>
<path d="M1998 566C2000.47 566.99 2000.47 566.99 2003 568C1998.25 571.875 1998.25 571.875 1996 573C1996.88 567.125 1996.88 567.125 1998 566Z" fill="#E1E3DD"/>
<path d="M484 484C486.5 486.174 487.436 487.73 488 491C486.68 491 485.36 491 484 491C483.34 489.68 482.68 488.36 482 487C482.66 486.01 483.32 485.02 484 484Z" fill="#272726"/>
<path d="M1639 771C1639.99 771 1640.98 771 1642 771C1641.67 772.32 1641.34 773.64 1641 775C1640.01 775 1639.02 775 1638 775C1637.67 775.66 1637.34 776.32 1637 777C1636.34 776.67 1635.68 776.34 1635 776C1636.81 773.5 1636.81 773.5 1639 771Z" fill="#D3D4D2"/>
<path d="M1474 765C1476.78 766.392 1476.98 768.156 1478 771C1476.68 771.99 1475.36 772.98 1474 774C1472.89 770.675 1473.16 768.378 1474 765Z" fill="#E8E9E6"/>
<path d="M1678 560C1679.65 560 1681.3 560 1683 560C1683 562.97 1683 565.94 1683 569C1682.67 569 1682.34 569 1682 569C1682 566.36 1682 563.72 1682 561C1681.01 562.485 1681.01 562.485 1680 564C1679.34 564 1678.68 564 1678 564C1678 562.68 1678 561.36 1678 560Z" fill="#0A0B08"/>
<path d="M1631 780C1631 780.99 1631 781.98 1631 783C1628.5 785.188 1628.5 785.188 1626 787C1625.34 786.67 1624.68 786.34 1624 786C1626.31 784.02 1628.62 782.04 1631 780Z" fill="#CAC9C7"/>
<path d="M2016 561C2015.67 561.99 2015.34 562.98 2015 564C2014.34 564 2013.68 564 2013 564C2013 564.66 2013 565.32 2013 566C2011.68 565.34 2010.36 564.68 2009 564C2012.62 561 2012.62 561 2016 561Z" fill="#222221"/>
<path d="M1781 762C1782.32 762.66 1783.64 763.32 1785 764C1783.88 765.562 1783.88 765.562 1782 767C1778.81 766.688 1778.81 766.688 1776 766C1776 765.67 1776 765.34 1776 765C1777.65 765 1779.3 765 1781 765C1781 764.01 1781 763.02 1781 762Z" fill="#1A1A1A"/>
<path d="M2548 215C2546.09 231.318 2543.71 247.371 2539.91 263.365C2537.99 271.622 2536.66 279.929 2535.38 288.306C2534.43 294.502 2533.24 300.538 2531.72 306.621C2530.53 312.196 2529.82 317.843 2529.09 323.493C2528.48 328.056 2527.69 332.425 2526.51 336.871C2525.44 341.318 2524.84 345.86 2524.12 350.375C2522.72 359.084 2521.08 367.667 2519.03 376.246C2517.4 383.437 2516.25 390.735 2515 398C2514.87 398.729 2514.75 399.459 2514.62 400.21C2513.62 406.064 2512.62 411.918 2511.62 417.773C2509.85 428.203 2507.98 438.608 2506 449C2504.06 448.652 2504.06 448.652 2502 448C2501.69 447.196 2501.38 446.391 2501.06 445.562C2500.71 444.717 2500.36 443.871 2500 443C2499.3 442.765 2498.61 442.531 2497.89 442.289C2493.6 440.377 2490.9 437.172 2487.69 433.812C2486.34 432.437 2485 431.063 2483.65 429.691C2483.02 429.042 2482.38 428.392 2481.72 427.723C2479.25 425.25 2476.63 422.991 2473.96 420.742C2471.33 418.404 2468.9 415.886 2466.44 413.375C2463.54 410.42 2460.71 407.607 2457.25 405.312C2452.45 401.895 2447.89 397.682 2446 392C2444.35 391.67 2442.7 391.34 2441 391C2441 391.66 2441 392.32 2441 393C2439.37 394.728 2437.72 396.365 2436 398C2434.99 399.001 2433.98 400.005 2432.97 401.011C2432.44 401.545 2431.9 402.08 2431.34 402.63C2428.91 405.052 2426.48 407.476 2424.04 409.901C2422.77 411.171 2421.49 412.44 2420.22 413.708C2412.15 421.607 2412.15 421.607 2404.55 429.949C2398.21 437.424 2390.92 444.125 2383.96 451.019C2374.64 460.191 2374.64 460.191 2365.87 469.88C2361.55 474.773 2356.92 479.382 2352.33 484.017C2351.12 485.247 2349.91 486.482 2348.71 487.722C2326.42 510.719 2296.21 526.64 2263.78 527.352C2229.84 527.592 2199.84 515.02 2175.56 491.502C2159.26 475.787 2143.57 461.441 2119.82 461.576C2112.74 461.795 2106.59 463.391 2100 466C2099.03 466.351 2098.06 466.701 2097.06 467.062C2077.46 474.568 2059.94 488.519 2042.81 500.372C2037.9 503.751 2032.92 506.976 2027.89 510.159C2022.86 513.368 2017.9 516.686 2012.94 520C2011.93 520.673 2010.91 521.346 2009.87 522.039C2004.29 525.762 1998.77 529.55 1993.28 533.411C1990.06 535.654 1986.8 537.813 1983.5 539.938C1982.89 540.335 1982.29 540.733 1981.66 541.143C1977.24 544 1977.24 544 1975 544C1974.86 542.336 1974.77 540.668 1974.69 539C1974.63 538.072 1974.57 537.144 1974.51 536.188C1975.64 528.801 1981.21 523.365 1986.25 518.188C1991.1 513.093 1995.62 507.883 2000.02 502.391C2002.31 499.631 2004.77 497.144 2007.34 494.648C2011.35 490.662 2014.94 486.262 2018.58 481.941C2024.73 474.68 2031.07 467.671 2037.62 460.772C2042.02 456.118 2046.1 451.327 2050.09 446.32C2052.34 443.582 2054.78 441.124 2057.34 438.664C2059.08 436.916 2060.66 435.08 2062.25 433.188C2078.99 414.011 2103.41 400.237 2129 398C2132.56 397.839 2136.12 397.776 2139.69 397.75C2140.57 397.741 2141.45 397.731 2142.35 397.722C2147.45 397.747 2152.08 398.287 2157.03 399.514C2159.44 400.108 2161.86 400.456 2164.31 400.812C2180.64 403.702 2198.25 414.06 2210.12 425.562C2223.53 438.398 2236.44 443.654 2255.01 443.619C2264.03 443.381 2269.77 441.582 2277 436C2277.98 435.278 2278.96 434.556 2279.97 433.812C2285.14 429.81 2289.59 425.541 2293.66 420.434C2294.32 419.724 2294.32 419.724 2295 419C2295.66 419 2296.32 419 2297 419C2297.26 418.41 2297.53 417.82 2297.8 417.211C2299.05 414.908 2300.35 413.436 2302.22 411.617C2302.84 411.007 2303.46 410.398 2304.1 409.77C2304.75 409.144 2305.4 408.519 2306.06 407.875C2307.35 406.625 2308.63 405.372 2309.91 404.117C2310.76 403.291 2310.76 403.291 2311.63 402.449C2313.11 401.026 2313.11 401.026 2314 399C2314.66 399 2315.32 399 2316 399C2316.26 398.414 2316.52 397.829 2316.78 397.226C2318.09 394.831 2319.5 393.289 2321.45 391.391C2322.47 390.381 2322.47 390.381 2323.52 389.352C2324.24 388.658 2324.95 387.965 2325.69 387.25C2330.49 382.564 2335.12 377.824 2339.49 372.732C2341.18 370.79 2342.96 368.972 2344.81 367.188C2346.92 365.154 2348.35 363.48 2350 361C2350.66 361 2351.32 361 2352 361C2352.33 360.179 2352.33 360.179 2352.66 359.342C2354.45 356.223 2356.89 353.979 2359.48 351.535C2360.57 350.478 2361.66 349.42 2362.76 348.361C2364.47 346.705 2366.2 345.053 2367.93 343.411C2369.61 341.82 2371.26 340.211 2372.92 338.598C2373.7 337.868 2373.7 337.868 2374.51 337.123C2376.14 335.577 2376.14 335.577 2378 333C2377.94 329.307 2377.18 328.212 2374.78 325.352C2373.84 324.452 2372.9 323.552 2371.94 322.625C2371.02 321.73 2370.1 320.836 2369.15 319.914C2366.18 317.124 2363.1 314.454 2360.02 311.777C2356.86 308.995 2353.76 306.133 2350.69 303.25C2350.02 302.624 2349.35 301.998 2348.66 301.353C2342.06 295.133 2335.66 288.718 2329.3 282.259C2328.53 281.488 2327.77 280.716 2326.98 279.922C2325.97 278.895 2325.97 278.895 2324.94 277.847C2323.04 275.94 2323.04 275.94 2320.75 274.442C2320.17 273.966 2319.6 273.49 2319 273C2319 272.01 2319 271.02 2319 270C2325.2 267.796 2331.38 266.134 2337.81 264.75C2346.45 262.837 2355.04 260.783 2363.62 258.625C2364.8 258.33 2365.97 258.036 2367.18 257.732C2370.79 256.823 2374.39 255.912 2378 255C2393.67 251.038 2409.35 247.172 2425.12 243.645C2445.13 239.281 2445.13 239.281 2464.88 233.859C2468.33 232.908 2471.8 232.216 2475.32 231.531C2490.9 228.445 2506.43 224.741 2521.56 219.938C2530.17 217.251 2538.93 214.726 2548 215Z" fill="#3ABA70"/>
</g>
<defs>
<clipPath id="clip0_3_3">
<rect width="3456" height="1216" fill="white"/>
</clipPath>
</defs>
</svg>
